<?xml version="1.0" standalone="no"?>
<!DOCTYPE svg PUBLIC "-//W3C//DTD SVG 1.1//EN" "http://www.w3.org/Graphics/SVG/1.1/DTD/svg11.dtd" >
<svg>
<metadata>
Created by FontForge 20120731 at Mon Dec  8 12:27:44 2014
 By Orthosie Webhosting
Copyright (c) 2010 by ruwakabaru. All rights reserved.
</metadata>
<defs>
<font id="MolokoRegular" horiz-adv-x="303" >
  <font-face 
    font-family="MolokoRegular"
    font-weight="400"
    font-style="italic"
    font-stretch="normal"
    units-per-em="2048"
    panose-1="2 0 8 0 0 0 0 9 0 4"
    ascent="1638"
    descent="-410"
    x-height="1172"
    cap-height="1481"
    bbox="-299.461 -836.744 1753.16 1735"
    underline-thickness="130"
    underline-position="-105"
    slope="-12"
    unicode-range="U+0020-044F"
  />
<missing-glyph horiz-adv-x="640" 
 />
    <glyph glyph-name=".notdef" horiz-adv-x="640" 
 />
    <glyph glyph-name=".null" horiz-adv-x="0" 
 />
    <glyph glyph-name="nonmarkingreturn" horiz-adv-x="682" 
 />
    <glyph glyph-name="space" unicode=" " horiz-adv-x="640" 
 />
    <glyph glyph-name="exclam" unicode="!" horiz-adv-x="430" 
d="M323 1688q92 -3 107 -128q1 -27 0 -56l-1 -15q-3 -92 -70 -470q-15 -184 -29 -270q-37 -157 -88 -297q-44 -115 -64 -136q-2 0 -12 -1q-26 1 -52 75q-9 39 -6 110l21 305l-1 159q2 50 32 377q-3 41 -1 87q3 92 36 178q63 84 128 82zM49 130q-17 63 34 86q24 12 45 15l8 1
q60 0 85.5 -32t26.5 -45l1 -9q-1 -63 -38 -84t-44.5 -23.5t-16.5 -3.5l-9 -2q-71 -21 -90 87z" />
    <glyph glyph-name="quotedbl" unicode="&#x22;" horiz-adv-x="354" 
d="M292 979q36 4 55 -15q4 -2 5 -8q-2 -48 -53.5 -88t-12 -108.5t68.5 -115.5q-1 -14 -19 -15q-28 -2 -63 33q-54 74 -76 165l-2 7q-15 61 27 109q24 32 70 36zM112 979q36 4 55 -15q4 -2 5 -8q-2 -48 -53.5 -88t-12 -108.5t68.5 -115.5q-1 -14 -19 -15q-28 -2 -63 33
q-54 74 -76 165l-2 7q-15 61 27 109q24 32 70 36z" />
    <glyph glyph-name="parenleft" unicode="(" horiz-adv-x="209" 
d="M145 47q-6 -39 -10 -39q-38 0 -73 111q-49 223 -58.5 343.5t0 227t66.5 210t97.5 103.5t32.5 -32t-8 -56t-18.5 -61.5t-39.5 -130t-19 -206t9.5 -229.5t20.5 -241z" />
    <glyph glyph-name="parenright" unicode=")" horiz-adv-x="217" 
d="M99 122q-47 -107 -84 -103q-4 0 -6 40q25 123 44 238t32 227.5t1 206.5t-26.5 133t-29 65.5t-2.5 56.5t52 26t87 -112.5t46 -215.5t-22.5 -226t-91.5 -336z" />
    <glyph glyph-name="plus" unicode="+" horiz-adv-x="612" 
d="M2 486q-6 36 26 55q4 4 15 5q17 3 68 -18q122 -27 124.5 -10t-5 110.5t28.5 121t88 -2.5t33 -120t-22 -105.5t87 -3.5h4q58 8 132 27q24 -1 27 -19q3 -28 -59 -63q-130 -53 -162.5 -62.5t-45 -9t-22 -47t-45.5 -120t-58.5 -68t-4.5 71.5t22 111.5t-3.5 44t-60 1.5
t-105.5 31q-57 24 -62 70z" />
    <glyph glyph-name="comma" unicode="," horiz-adv-x="297" 
d="M232 151q30 -57 0 -125l-4 -7q-44 -101 -117 -180q-45 -37 -72 -32q-17 3 -14 19q31 47 47 84l1 2q52 137 46 139q8 18 -4 82q-14 35 -8 46q2 7 7 9q24 19 58 12q45 -9 60 -49z" />
    <glyph glyph-name="hyphen" unicode="-" horiz-adv-x="661" 
d="M22 482q-6 36 26 55q4 4 15 5q17 3 68 -18q92 -27 120 -24q2 -6 214 14h4q58 8 132 27q24 -1 27 -19q3 -28 -59 -63q-130 -53 -287 -74l-12 -2q-105 -14 -186 29q-57 24 -62 70z" />
    <glyph glyph-name="period" unicode="." 
d="M75 202q19 63 75 56q26 -2 46 -11l7 -3q51 -31 56 -72t-1 -52l-4 -9q-33 -53 -76 -51.5t-50.5 3.5t-15.5 5l-9 4q-71 19 -31 121z" />
    <glyph glyph-name="zero" unicode="0" horiz-adv-x="1064" 
d="M769 1052q26 0 37 -30q0 -20 -87 -96q-166 -185 -166 -233q-26 -49 -47 -213q-27 -37 -60 -37h-13q-74 0 -90 130q0 252 363 466q29 13 63 13zM5 709q-4 198 39 339l10 30q48 159 194 154q30 -8 51 -21l6 -4q57 -36 33 -114l-5 -15q-9 -29 -81 -190q-26 -98 -25.5 -176.5
t15 -169.5t66.5 -175.5t133.5 -129t181 1t161.5 124t92.5 185t27 224t-25.5 212.5t-72.5 181t-132.5 103t-140 -25.5t-99 -82t-39.5 31t73 131.5t149 68.5t139 -13t110 -71t97.5 -157.5t70.5 -258.5t15 -264.5t-32 -214.5t-100 -203t-210 -165t-260.5 -32.5t-196 88
t-124.5 128.5t-88 231t-32.5 249.5z" />
    <glyph glyph-name="one" unicode="1" horiz-adv-x="336" 
d="M170 1306h4q70 0 98 -83q3 -14 3 -26v-19q0 -9 -24 -115q-8 -59 -9 -141q0 -109 54 -554q34 -309 34 -393q-21 -53 -53 -53h-7q-58 0 -107 213q-66 219 -144 674q-9 77 -9 126v51q0 250 124 312q24 8 36 8z" />
    <glyph glyph-name="two" unicode="2" horiz-adv-x="369" 
d="M260 1398q67 0 95 -78q6 -11 6 -35q0 -43 -52 -148q-73 -202 -73 -267q-12 0 -29 -491v-7q0 -135 18 -309q-8 -55 -42 -55q-52 0 -102 155q-68 312 -68 676v27q0 243 101 414q59 118 146 118z" />
    <glyph glyph-name="three" unicode="3" horiz-adv-x="364" 
d="M267 1371q64 0 90 -76l2 -21v-14q0 -35 -50 -122q-29 -67 -58 -201q-27 -170 -73 -565q-39 -287 -56 -287q-24 -22 -45 -22q-49 0 -57 106q-9 96 -9 246v16q12 503 29 567q19 114 46 184q10 45 60 119q58 70 121 70z" />
    <glyph glyph-name="four" unicode="4" horiz-adv-x="313" 
d="M180 1395q92 0 112 -124q2 -27 2 -56v-15q0 -92 -53 -472q-9 -185 -20 -271q-31 -158 -77 -300q-40 -117 -59 -138q-2 0 -12 -2q-26 0 -55 73q-10 39 -10 110l10 306l-6 158q0 51 18 378q-4 41 -4 87q0 92 29 179q60 87 125 87z" />
    <glyph glyph-name="five" unicode="5" 
d="M166 1301h9q80 0 114 -86q4 -18 4 -31q-13 -215 -51 -586q-4 -54 -6 -113q0 -89 38 -444q2 -24 2 -58q0 -92 -36 -119q-18 -17 -42 -17q-52 0 -80 161q-42 168 -78 427q-32 383 -32 459v5q0 124 32 303q44 99 126 99z" />
    <glyph glyph-name="six" unicode="6" horiz-adv-x="1427" 
d="M27 1363q26 -5 139 -124t291 -168t301 -70.5t31 63.5t-136 140.5t-55 -16t-42.5 -90.5t-66.5 -6t-15 67t42 110t62.5 96t78.5 -15.5t88 -122t151 -196.5t75.5 -139t-60.5 27t-203 38t-312 62t-167 70.5t0 -33.5t43.5 -83t5 -75.5t-52 -18t-85.5 111.5t-99 212
t-44.5 142.5t30.5 17.5zM1300 925q-361 -197 -487.5 -302.5t-79 -130.5t109 -62t120.5 -65.5t104.5 -43.5t20 72.5t-42.5 169.5t10 99t46.5 -9.5t34.5 -104t76.5 -227.5t-29.5 -158.5t-417 199.5l-192 156q-53 40 -100 98t-40 86t28.5 24t76.5 -74.5t93.5 -91.5t143.5 83.5
t245 193.5t74 89.5t-69 28t18.5 29.5t261 40t-5.5 -99zM389 928q28 26 44 -1.5t-23 -77t-52.5 -133.5t-16.5 -182t-1.5 -148.5t9.5 -116t36.5 -10t111 131t97 51.5t-61 -115t-147 -210t-111.5 -113t-32 340t63.5 446.5t83.5 137.5zM654 733q-143 -8 -161 27t109 100.5
t176.5 57t65.5 -56.5t-15.5 -83.5t-174.5 -44.5z" />
    <glyph glyph-name="seven" unicode="7" horiz-adv-x="1437" 
d="M565 1349q98 -53 141.5 -120t47.5 -104.5t9.5 -21.5t33 48.5t65.5 62t76 49.5t123 22.5t178 -57t145 -167.5t34 -211.5t-55 -170t-95.5 -130t-139 -111.5t-139 -95.5t-103 -121t-64.5 -140t-113 -12t-162 105.5t-163.5 126t-165 143.5t-127 163.5t-75.5 196t-10 210.5
t57 182t116 125.5t178 66.5t208 -39.5z" />
    <glyph glyph-name="eight" unicode="8" horiz-adv-x="1274" 
d="M500 1381q39 122 80 62.5t91.5 -247.5t48.5 -317t15 -154t17 -92.5t7.5 -160.5t-113 -93.5t-129.5 64t-27 130t-10.5 94.5t-5 86t-12.5 281.5t38 346.5zM848 1285q30 13 121 -49t121 -108.5t63 -49t23.5 -46.5t-3.5 -76t25 -32t42.5 13.5t23.5 -33t-38 -91.5t-60 -138
t-21.5 -154t-88 -146.5t-125 -94.5t-78.5 46t34 201.5t69.5 355.5t-72.5 299t-36 103zM243 1068q24 8 10.5 -70t-13.5 -138.5t8.5 -159.5t125 -210t94.5 -165t-81.5 -47t-153.5 89.5t-114.5 127.5t-47.5 151.5t-38.5 147.5t17 41t25.5 64t21.5 50.5t73.5 48.5t73 70z
M676 320q119 0 158 -82q19 -47 19 -89v-15q0 -129 -116 -189q-29 -9 -52 -9h-18q-122 0 -186 165q-6 28 -6 45v19q0 135 183 155h18z" />
    <glyph glyph-name="nine" unicode="9" horiz-adv-x="1628" 
d="M1011 626q5 0 -4.5 21t-101 50.5t-170 -60.5t-171.5 -90t-164.5 29.5t-115.5 29.5t-131 -100t-119.5 -87.5t-22.5 96.5t145.5 192.5t206 108.5t127.5 -34.5t81 -34.5t132.5 90t238 53t75.5 61t-9 74.5t234 -76.5t255 -53t110 -60t-10.5 -133.5t-265.5 -84.5t-281.5 -96
t-80.5 -39t42 143zM797 1123q2 1 -5.5 9.5t-53 8.5t-68.5 -52t-65 -65t-79 -10t-56.5 -3t-45 -64t-42 -57t-24 40.5t38.5 108t78 78.5t63 2.5t42 -4t47.5 60t100.5 58t25.5 38.5t-15 32.5t117 -1.5t124 12.5t59 -11.5t14 -62t-109 -76.5t-114.5 -84t-31 -29t-1 70.5z
M747 232q3 -1 2 11t-40 42.5t-93 1t-99 -13t-75 43.5t-51 35t-81.5 -25t-74 -21.5t6.5 51t105 67.5t119.5 15.5t56 -39.5t33 -31t80 20.5t125 -17t47.5 16t9 38t100.5 -79t114.5 -71t42.5 -48.5t-29 -63t-144 6.5t-153.5 3.5t-46 -5t45 62z" />
    <glyph glyph-name="colon" unicode=":" horiz-adv-x="292" 
d="M59 210q29 60 79 60q27 -3 48 -12l7 -4q75 -28 67 -102q-2 -17 -7 -28l-5 -9q-40 -48 -126 -54q-15 4 -24 8l-9 4q-67 33 -34 128zM161 870q69 0 92 -48q11 -27 11 -51v-9q-14 -73 -49 -94t-48 -21h-11q-84 -19 -108 96q-3 16 -3 26v11q0 78 105 90h11z" />
    <glyph glyph-name="semicolon" unicode=";" 
d="M236 189q27 -53 0 -116l-3 -6q-42 -93 -109 -167q-41 -34 -66 -29q-16 3 -13 18q28 43 43 77l1 2q48 127 43 128q7 17 -5 76q-12 32 -7 43q3 6 7 8q22 17 54 11q41 -8 55 -45zM164 870q68 0 90 -47q10 -26 10 -50v-9q-13 -72 -47.5 -92.5t-47.5 -20.5h-10
q-83 -19 -106 94q-3 16 -3 26v10q0 77 103 89h11z" />
    <glyph glyph-name="question" unicode="?" horiz-adv-x="700" 
d="M299 530q-56 -211 -98 -251.5t-48 96.5t36 301t238 264t173 204t-91.5 130.5t-132 18.5t-116.5 -52t-78 -113.5t-99 -80.5t-114.5 65t13.5 168t201.5 152.5t291.5 51t253 -175.5t27.5 -316t-240.5 -200.5t-216 -261.5zM84 49q-54 38 -30 89q10 24 25 40l5 6
q45 39 85.5 31t49.5 -17l7 -6q40 -48 25.5 -88.5t-18.5 -47t-10 -13.5l-6 -7q-40 -62 -125 8z" />
    <glyph glyph-name="at" unicode="@" horiz-adv-x="1361" 
d="M744 636q35 57 53.5 115.5t-12 98.5t-95.5 29t-120.5 -95t-35 -205.5t88 -183.5t155 -75t167.5 36t137 111t71 157t-8.5 221.5t-127 224.5t-245.5 121t-247.5 -3.5t-171 -94.5t-95.5 -162t-32 -244.5t58 -306.5t180 -224.5t293.5 -81.5t306.5 37.5t222.5 126t109.5 57.5
t-70 -119t-237 -162.5t-367 -69.5t-377 94t-247 275.5t-101 338t44.5 330.5t170 272t277 142t347 -7t324.5 -174.5t183.5 -281t13.5 -312t-128.5 -282.5t-204.5 -169t-259.5 -32.5t-259.5 97.5t-149.5 204t-36 256.5t77.5 231.5t153 142t195.5 35.5t188 -57t97.5 -175.5
t-6.5 -228t-68.5 -182t-94 -94t-97.5 -3t-68.5 49t-6 102.5t54 119.5z" />
    <glyph glyph-name="afii10017" unicode="&#x410;" horiz-adv-x="1107" 
d="M242 -434q-28 -84 -54 -138t-116 -77.5t-137 59t4 280t107 403t157.5 463t239.5 480.5t257 325.5t207.5 123.5t134 -35.5t53 -137.5t3.5 -206t-55.5 -319.5t-36.5 -330t72 -280.5t-5.5 -196.5t-137.5 30.5t-99 273t41.5 571t-33 359t-191 -143.5t-152.5 -261
t-104.5 -284.5t66.5 -146t182.5 52t110.5 22.5t-44 -110.5t-166 -126.5t-171 -76.5t-96.5 -260t-36.5 -313z" />
    <glyph glyph-name="afii10018" unicode="&#x411;" horiz-adv-x="931" 
d="M83 1441q40 30 57 36.5t60 3.5t64 -25.5t215.5 -46.5t344.5 -96t144.5 -114t-180.5 -11.5t-335.5 13.5t-168 -31t-25.5 -69t-36 -198t-34 -252t99 21t212.5 146.5t201.5 -24t163.5 -147.5t65 -236.5t-38 -232.5t-152.5 -182t-223.5 -51.5t-186.5 113t-68.5 130.5
t85 -34.5t170.5 -79.5t164.5 55t94 140.5t-10 192t-94 156t-139 25t-190.5 -181t-130 -339t-116.5 -174.5t-101 155.5t22 364.5t34.5 390.5t13 230t-8.5 76.5t-23.5 82.5t-3 113t54 80.5z" />
    <glyph glyph-name="afii10019" unicode="&#x412;" horiz-adv-x="1207" 
d="M51 1263q-17 120 64 143t119.5 -1.5t43.5 -68t-4 -120t64.5 -18t159.5 124.5t162.5 101.5t136 49t110.5 -8t67 -61t18 -100t-8.5 -118.5t-45.5 -117.5t-96 -141.5t-170.5 -155.5t-39 -125t115 -109t82 -142.5t56 -166t23 -178t-18.5 -169.5t-87 -91t-136.5 17.5t-140 79
t-141 100t-115 106.5t-56.5 85t-2.5 64.5t93.5 -60t160.5 -133t148 -81.5t117 -32.5t64 50t-8.5 136t-63.5 176.5t-128.5 174.5t-174.5 150.5t-23 95.5t162.5 112t149 152t72.5 133.5t12 110t-47 71t-111 -14.5t-175 -106t-154 -165.5t-72 -248t-35 -268.5t-31 -188
t-19 -153.5t-37.5 -188.5t-65.5 -124.5t-49 12.5t-4 116t17.5 184t20 190t25 194t12.5 354t-16.5 372z" />
    <glyph glyph-name="afii10020" unicode="&#x413;" horiz-adv-x="589" 
d="M101 1441q48 30 68.5 36.5t72.5 3.5t77.5 -25.5t259.5 -46.5t414.5 -96t174 -114t-217 -11.5t-404 13.5t-202.5 -31t-30.5 -69t-58.5 -188t-56.5 -252t-33 -237.5t-27.5 -306.5t-55 -174.5t-63.5 161t-13.5 364.5t41.5 390.5t30.5 230t-10 76.5t-28.5 82.5t-3.5 113
t65 80.5z" />
    <glyph glyph-name="afii10021" unicode="&#x414;" horiz-adv-x="1328" 
d="M144 1272q5 94 85.5 122.5t135 -25.5t41 -124t-43.5 -235.5t-54.5 -454.5t117.5 -349.5t283 -81.5t237 83t141.5 258.5t24 282t-102 280.5t-241 297.5t-463.5 111.5t-295 47.5t335 106t558.5 -119t344 -430t89 -530t-98 -351t-194.5 -170t-242.5 -77t-329.5 83t-296 33
t-166 -23.5t-67 175t79.5 165.5t93.5 183t24.5 401t4.5 341.5z" />
    <glyph glyph-name="afii10022" unicode="&#x415;" horiz-adv-x="942" 
d="M140 1498q49 9 96.5 2.5t69.5 -30.5t235.5 -63.5t374.5 -123t152 -125t-201 3t-379 37.5t-203.5 -72t-40.5 -201t188.5 -145t358.5 -77t113.5 -101t-191 6.5t-319 25.5t-183.5 -46t-41.5 -221.5t235.5 -203t399 -104t130.5 -121t-176.5 11.5t-373 44.5t-235 -14.5
t-61 -3.5t-65 63.5t-2.5 102.5t21 90t-5 191t-26.5 218.5t3 131.5t35.5 177.5t8.5 167.5t-20 74t-42 52t-19 105t58 104.5t105 43z" />
    <glyph glyph-name="afii10024" unicode="&#x416;" horiz-adv-x="1686" 
d="M77 1209q-58 -23 -99.5 0.5t-45 83.5t32 113t128.5 84.5t188.5 -1t144.5 -109.5t80.5 -162.5t32 -223t-31.5 -303.5t25.5 -64t104 277.5t72 255t100.5 106t114 -17t46.5 -131.5t-24.5 -302t-47.5 -316t9.5 -42.5t57 151.5t90.5 290t157 380.5t208 229t180 4.5t31.5 -118
t-95 -109t-101 -127t-65 -237.5t-22 -270t29 -264.5t84.5 -212.5t149 -44.5t110.5 6t-82 -94.5t-205 -40t-172 165.5t-79.5 318.5t-5 268.5t-28 -32t-67.5 -195.5t-50.5 -133t-76 -146t-114.5 -79t-65.5 93.5t-3 212t32 346.5t0 118.5t-78.5 -245t-152.5 -312.5t-242.5 -280
t-210 -119.5t-100 52t35 102.5t119.5 113t97.5 198t63 300t0 275t-74 174t-90 52.5t-95 -39z" />
    <glyph glyph-name="afii10025" unicode="&#x417;" horiz-adv-x="964" 
d="M964 301q-9 -69 -28.5 -147t-68.5 -174.5t-133.5 -177t-202 -148t-259.5 -68t-233 142t-36.5 287t89 135.5t15 -106t26.5 -188.5t134 -99.5t156.5 4t148.5 68t142 147t89 155t36.5 183.5t-60.5 172t-129.5 52t-174 -44t-141 -2t25 119.5t210 177.5t217 216.5t20.5 186
t-111.5 95.5t-137 18.5t-116.5 -42t-78 -103.5t-99 -80.5t-124.5 65t3.5 168t196.5 152.5t286.5 51t254 -115t118 -283t-216.5 -332.5t-124 -137.5t186 -56.5t107 -147.5t12.5 -143.5z" />
    <glyph glyph-name="afii10026" unicode="&#x418;" horiz-adv-x="1234" 
d="M211 1477q59 20 134.5 6.5t78.5 -93t-81.5 -227t-130 -406t35.5 -379t132 -55.5t88.5 164.5t106 312.5t185.5 409.5t217.5 250t183.5 9t36.5 -127t-83.5 -121.5t-90 -140t-82 -236.5t-46.5 -257t-9.5 -232.5t71.5 -191t176.5 -47t130.5 7.5t-96.5 -102t-242 -44
t-186 190.5t-45.5 271.5t25.5 205t-32.5 -35t-79.5 -211.5t-60 -143.5t-90 -157t-135.5 -85t-168 101t-133 246.5t-12 529t83.5 469.5t118 118.5z" />
    <glyph glyph-name="afii10027" unicode="&#x419;" horiz-adv-x="1372" 
d="M211 1477q59 20 134.5 6.5t78.5 -93t-81.5 -227t-130 -406t35.5 -379t132 -55.5t88.5 164.5t106 312.5t185.5 409.5t217.5 250t183.5 9t36.5 -127t-83.5 -121.5t-90 -140t-82 -236.5t-46.5 -257t-9.5 -232.5t71.5 -191t176.5 -47t130.5 7.5t-96.5 -102t-242 -44
t-186 190.5t-45.5 271.5t25.5 205t-32.5 -35t-79.5 -211.5t-60 -143.5t-90 -157t-135.5 -85t-168 101t-133 246.5t-12 529t83.5 469.5t118 118.5zM481 1649q-4 51 23 79q3 5 12 7q68 -4 125 -79t156 -19.5t167 96.5q20 -1 21 -27q3 -40 -49 -90q-107 -76 -238 -107l-10 -3
q-88 -20 -155 42q-46 35 -52 101z" />
    <glyph glyph-name="afii10028" unicode="&#x41a;" horiz-adv-x="936" 
d="M35 1237q10 165 78.5 207t124.5 24.5t67 -68t-6 -211t4.5 -192t126 26t207.5 179t145.5 198.5t65 68t-23.5 -149t-140 -279t-174.5 -200.5t-136 -93.5t28.5 -75t204 -132.5t205.5 -206t122 -195t18 -90.5t-131 107.5t-196.5 175.5t-155 93.5t-161 77.5t-120 -101
t-49 -280.5t-53.5 -139t-52.5 114t-15 308.5t-11.5 227t-8.5 91t15 81t11 145.5t11 288.5z" />
    <glyph glyph-name="afii10029" unicode="&#x41b;" horiz-adv-x="1003" 
d="M233 136q-26 -60 -78 -88t-105.5 -31.5t-70 69t37 216t109.5 294t145.5 333.5t194.5 333t184.5 209t135.5 68t71.5 -50t5.5 -126.5t-24 -160.5t-13 -228.5t23 -293.5t71 -305.5t95 -246t25 -123t-104 74t-138 242t-85 303.5t-28 357t-26 216t-69.5 -31.5t-80 -127
t-82 -182.5t-79.5 -229.5t-62 -277.5t-53 -214z" />
    <glyph glyph-name="afii10030" unicode="&#x41c;" horiz-adv-x="1498" 
d="M257 -366q-21 -79 -83 -129.5t-131 -72.5t-105 55.5t3.5 261.5t82 376t120.5 432t183.5 448.5t197 304t159.5 115t102.5 -33t40.5 -128t2.5 -192t-42.5 -298.5t-28 -308.5t48.5 10.5t81.5 261t117 249t146.5 241t137.5 186t125 102.5t113.5 -6.5t69.5 -108t-31 -182.5
t-86 -206t-70 -199.5t-61.5 -316.5t2 -370.5t99.5 -236.5t41 -104t-116.5 24t-155 245t-64 348t22 283.5t56 236t60.5 166.5t2 70t-64.5 -47t-101.5 -187.5t-121 -327.5t-106.5 -363.5t-112.5 -212.5t-124.5 28.5t-76 254.5t20 435.5t-10 265t-92.5 -64t-78.5 -173.5
t-68.5 -237.5t-55.5 -290t-24 -340t-24.5 -264z" />
    <glyph glyph-name="afii10031" unicode="&#x41d;" horiz-adv-x="1080" 
d="M110 1379q24 65 75 97.5t96.5 32.5t74.5 -29.5t27.5 -67t-17.5 -77.5t-59 -114.5t-65 -193t-3 -161t63.5 -56.5t130.5 -25.5t158.5 -10.5t122 44.5t77 241.5t58.5 289t84.5 120t112 7.5t65.5 -84t1.5 -97t-33 -106t-40.5 -107.5t-45 -159.5t-36 -206.5t-5 -169t10 -216.5
t38.5 -232.5t-2 -109t-63 52t-52.5 123t-38 167t-26.5 200t0 174t-8 52t-66 -61.5t-112 -48.5t-135 -15.5t-181 -16.5t-120 -68.5t-12 -139t19 -168.5t32.5 -161t-16.5 -71.5t-73 75.5t-65 155t-51 201.5t-26.5 244t15.5 238t26 206t26 141.5t37.5 111z" />
    <glyph glyph-name="afii10032" unicode="&#x41e;" horiz-adv-x="1239" 
d="M13 802q-6 217 44 372l10 30q57 174 227 169q35 -9 58 -24l9 -5q66 -38 36 -123l-4 -15q-11 -32 -95 -210q-30 -105 -20 -191t21 -200t76.5 -209.5t157.5 -123.5t198.5 3.5t181 133.5t110.5 218t31.5 243.5t-34 223.5t-84.5 167t-150 89t-162 -27.5t-114 -88.5
t-45.5 33.5t84 143t175.5 84t161.5 -13.5t132.5 -86t113 -141.5t73.5 -251.5t17 -288.5t-36.5 -234t-115.5 -221.5t-244 -194.5t-312 -49t-227 96.5t-134.5 154.5t-102 265.5t-37 271z" />
    <glyph glyph-name="afii10033" unicode="&#x41f;" horiz-adv-x="1239" 
d="M158 1460q69 11 88 17.5t67 3.5t71.5 -25.5t239.5 -46.5t327.5 -43.5t162.5 24.5t125.5 22.5t76.5 -72.5t36 -78t32 -35.5t-46 -26.5t-54 -58.5t-93.5 -277.5t-124.5 -579t-90 -342.5t-49.5 292.5t17.5 498t55.5 337t-92 134.5t-311 -9t-201 -80.5t-34 -206.5t-22 -255
t-17.5 -415.5t-37 -295.5t-54.5 150t-44 370t-19.5 396t-5 230t-9.5 76.5t-38 16t-68 19t-41.5 93t40.5 113t112.5 54z" />
    <glyph glyph-name="afii10034" unicode="&#x420;" horiz-adv-x="815" 
d="M32 1466q-19 126 71.5 150.5t134 -1.5t49 -72t-4.5 -127t72.5 -18.5t179 132t182.5 107t152.5 51.5t123.5 -8.5t75 -64.5t20.5 -106t-9.5 -125.5t-51 -124.5t-107.5 -150t-161.5 -164.5t-209.5 -126.5t-195 -34.5t54 78.5t219.5 146t142 160.5t81.5 141.5t13.5 117
t-53 75.5t-125 -15.5t-196.5 -112.5t-172.5 -175.5t-80.5 -262.5t-39 -284.5t-35 -199t-21.5 -162.5t-42 -199.5t-74 -131.5t-55 12.5t-4 122.5t20 195.5t22.5 201t28 205.5t14 375.5t-18.5 394z" />
    <glyph glyph-name="afii10035" unicode="&#x421;" horiz-adv-x="1230" 
d="M1147 1067q-82 -23 -149.5 4.5t-145.5 106t-174 87t-192.5 -33.5t-186 -171t-83 -291t55 -267.5t179 -212t323 -93.5t277.5 82t111 99t55.5 25t0.5 -68.5t-123 -155.5t-271 -147.5t-340 -6t-256.5 140.5t-142.5 198.5t-70.5 228t-9 292.5t105.5 315t237.5 224.5t333 74.5
t347.5 -76t180 -200t-62 -155z" />
    <glyph glyph-name="afii10036" unicode="&#x422;" horiz-adv-x="1196" 
d="M204 1525q133 -17 232 -35.5t118 -12t67 3.5t71.5 -25.5t179 -52t242 -71t80.5 -83.5t-120.5 -42t-232.5 -11.5t-126 -25.5t-19.5 -69t-26 -192.5t-22 -255t-17.5 -415.5t-37 -295.5t-54.5 150t-44 370t-19.5 396t-5 230t-9.5 76.5t-72.5 23t-196 9.5t-168.5 29.5
t-41.5 93t43 146t179 59z" />
    <glyph glyph-name="afii10037" unicode="&#x423;" horiz-adv-x="887" 
d="M335 1506q9 -89 -70 -171t-125 -246.5t39.5 -239t195 -44.5t164 77.5t92.5 87.5t51.5 84t28.5 110t18.5 151t6 103t22 47t49.5 34.5t56.5 -8t50 -55t16.5 -106.5t-25.5 -206t-42 -262.5t-54.5 -246t-47.5 -161t-45 -108t-65 -146.5t-81 -142t-119 -134.5t-143 -108
t-115.5 -58t-86.5 3t22 72t100 89t96 101t109.5 136.5t94 158t85.5 224t57 230.5t-123 -17t-271 -98t-213.5 107t-73 270t63.5 344t105.5 202.5t108 24t69 -98z" />
    <glyph glyph-name="afii10038" unicode="&#x424;" horiz-adv-x="1438" 
d="M1215 1002q-36 88 -106 152.5t-91.5 75t-61 -151.5t-88.5 -414.5t-55.5 -324.5t82.5 -41t182 102t139.5 176.5t41 221.5t-42.5 204zM2 736q-7 198 80.5 362.5t175 192t135 -33.5t6.5 -121t-89.5 -139.5t-66 -200.5t22 -219t116 -176t152 -100.5t89 40t23 129.5t30.5 262
t32.5 312.5t14.5 160t-57.5 4.5t-119.5 -78t-57 30.5t105 131.5t122.5 63.5t16.5 97t39 148.5t116.5 63.5t138.5 -33.5t20 -158t-15 -123.5t50.5 -15.5t102.5 -57t142 -129t92.5 -230t21 -263.5t-46.5 -213t-144.5 -202t-254 -163t-210.5 -68.5t-78.5 -66.5t-28.5 -149.5
t-33.5 -157.5t-67 -78t-41 140.5t19 237t-5.5 88.5t-85 35t-138.5 82t-149.5 134t-128.5 229t-46.5 232.5z" />
    <glyph glyph-name="afii10039" unicode="&#x425;" horiz-adv-x="1189" 
d="M146 1126q-61 -28 -104.5 -0.5t-47.5 100.5t33.5 136.5t135.5 102t198.5 0t152 -132t84 -197t27.5 -211t68.5 196t188.5 359.5t189 6.5t33 -141.5t-100.5 -132t-106 -152.5t-69 -226t6 -317t84.5 -293.5t157 -52.5t117 8t-86 -115t-216 -49t-181.5 200t-67.5 263
t-44.5 -50t-190.5 -288t-221 -143t-105.5 62.5t36.5 123t125.5 136.5t108 172t68 244.5t-1.5 223t-76 151t-95 63t-100 -47z" />
    <glyph glyph-name="afii10040" unicode="&#x426;" horiz-adv-x="1239" 
d="M226 1468q64 19 144.5 5.5t83.5 -92t-87 -224.5t-139 -401.5t37.5 -375t141 -55.5t95 162.5t114 309.5t198.5 406t232.5 247.5t196.5 8.5t39.5 -125.5t-89.5 -120t-97 -139t-87.5 -234.5t-49.5 -254t-10 -230t24 -154t65.5 9t69.5 62.5t54 11t59.5 -31.5t-4.5 -170
t-118.5 -267.5t-150.5 -121.5t24.5 116t87 167.5t-35.5 27.5t-103 -11.5t-128 178t-49 268.5t27 203t-35 -34.5t-85.5 -209.5t-64 -141.5t-96 -155.5t-145 -84.5t-179.5 100t-142.5 244t-13.5 524t89.5 465t126.5 117.5z" />
    <glyph glyph-name="afii10041" unicode="&#x427;" horiz-adv-x="1234" 
d="M252 1671q64 20 144.5 6t83.5 -92t-116.5 -224.5t-132 -249.5t60 -215t141.5 -56t131 130.5t92 141t111.5 173t189.5 160t196.5 9.5t39 -125.5t-89.5 -120.5t-97 -139.5t-87.5 -234t-49.5 -254t-10 -230.5t76.5 -189t188.5 -46.5t140 7.5t-103.5 -100.5t-259.5 -44
t-198.5 188.5t-48.5 268.5t33.5 249.5t49.5 240t-4.5 52.5t-83 -127t-132.5 -159.5t-159.5 -68t-180 100t-143 179t-20.5 299.5t97 328.5t141 142z" />
    <glyph glyph-name="afii10042" unicode="&#x428;" horiz-adv-x="1730" 
d="M724 1474q57 20 129 6t74.5 -93t-78 -226t-124 -405t34 -378.5t126 -55.5t84.5 164t101.5 311.5t177.5 409t208.5 250t176 9t35 -127t-80 -121t-86.5 -140t-78.5 -236t-44 -256t-9 -232t68 -190.5t168.5 -47t125 7t-92 -102t-231.5 -43.5t-178 190t-43.5 270.5t24 204.5
t-31.5 -34.5t-76 -211t-57.5 -143t-86 -156.5t-129.5 -85t-123 55.5t-106 156t-154.5 -59.5t-226.5 -121t-158.5 170.5t-56 342.5t12 479t70.5 348.5t127 121t133.5 -57.5t-38.5 -378t-83.5 -533.5t59.5 -254.5t142 117t81.5 198t22 363t78.5 396t113.5 118.5z" />
    <glyph glyph-name="afii10043" unicode="&#x429;" horiz-adv-x="1675" 
d="M722 1471q57 20 129 6t74.5 -93t-78 -226.5t-124 -405.5t33.5 -378.5t126 -56t84.5 164t101 312.5t177.5 409.5t208 250t175.5 9t35 -127t-80 -121.5t-86.5 -140t-78 -236t-44 -256.5t-9 -232.5t53.5 -178t94.5 -1.5t96 61.5t61 -52.5t-24.5 -173t-101.5 -201.5
t-114.5 -74t33.5 161t32 112.5t-133.5 -22t-136 181.5t-43.5 271t24 204.5t-31.5 -34.5t-76 -211t-57 -143.5t-85.5 -157t-129.5 -85t-123 56t-105.5 156.5t-154 -60t-226 -121.5t-158 170.5t-56 343t12 480t70 349t127 121.5t133.5 -57.5t-38.5 -379t-83.5 -534t59 -255
t141.5 117t81 198.5t22.5 363.5t79 396.5t112.5 118.5z" />
    <glyph glyph-name="afii10047" unicode="&#x42d;" horiz-adv-x="1107" 
d="M77 1124q-78 29 -52.5 159t156.5 172.5t310.5 37.5t313 -95.5t215 -240t87.5 -322t-19.5 -292.5t-75.5 -224t-143 -190t-248.5 -124.5t-321 29.5t-248.5 184.5t-59.5 134.5t102 -57t260 -100t309.5 72.5t177.5 200t57.5 142t-32 92.5t-173.5 27.5t-207 -47.5t-76.5 16
t97 100t197 82.5t147 41t-22 131.5t-161.5 159t-181 46t-146.5 -59.5t-119.5 -80.5t-142.5 5z" />
    <glyph glyph-name="afii10048" unicode="&#x42e;" horiz-adv-x="1757" 
d="M27 1373q12 65 66.5 95.5t102.5 28t77 -33.5t36 -69.5t5 -79t-14.5 -116.5t-35.5 -195t-25 -162t43.5 -59.5t83 -25t84 -3t85.5 39t55.5 234.5t43 292t83 118.5t117 2.5t75.5 -89.5t7.5 -99.5t-29 -107t-36 -108t-23 -153t-12 -201.5t27 -222t142.5 -193t195 -33
t146.5 75t118 163t82.5 252t14 225.5t-55.5 212t-130.5 197t-221 9.5t-153.5 -26t114.5 110.5t313.5 9.5t242.5 -224.5t90 -337.5t-6 -264t-62 -180.5t-105 -185t-149 -145t-170.5 -90t-202 -41.5t-214.5 74t-153 205t-57 218t-20 147.5t-43.5 27t-71 -42.5t-90.5 -24.5
t-123 -15.5t-91.5 -64t-35 -140t-17.5 -171t-31 -153t-57 -60t-37 69t-3 148t1.5 205t5.5 248t9 242t4.5 210t-3 144t6.5 112.5z" />
    <glyph glyph-name="afii10049" unicode="&#x42f;" horiz-adv-x="1129" 
d="M26 203q77 53 212.5 179.5t235 279.5t-10 137.5t-185 20t-136 111.5t-76 166.5t-2.5 163.5t46.5 153t87 134.5t92 74.5t110.5 40t136 5.5t133 -49.5t122.5 -111t44 -105t-55.5 9.5t-123 70.5t-153 43t-127 -19.5t-87 -94.5t-51.5 -166.5t55 -167.5t188.5 -45t195 83.5
t137.5 159.5t124 150.5t140.5 32t59.5 -125.5t-62 -141t-80.5 -118.5t-52.5 -224t-10 -270t47.5 -264.5t110.5 -212.5t57.5 -122.5t-138.5 46.5t-177 213t-74 244.5t-24.5 204.5t-88.5 -62.5t-135 -227.5t-112.5 -173t-134 -175t-164.5 -75.5t-123 94t48.5 134z" />
    <glyph glyph-name="afii10065" unicode="&#x430;" horiz-adv-x="1019" 
d="M457 977q121 8 209 -28l19 -7q97 -41 95 -172q-4 -27 -12 -45l-3 -6q-21 -51 -69 -32l-10 4q-18 7 -117 69q-60 21 -108 12t-104 -31t-105 -70t-64 -112.5t3.5 -145.5t64.5 -134t102 -67.5t116.5 1.5t118 57t91 84t56.5 109t36 150t16 117t28.5 79t80 48.5t70.5 -40
t-13.5 -140.5t-40.5 -166t-24 -129t-12 -113t19 -91t65 -75t32 -64.5t-77.5 -5t-86.5 59.5t-38 80t-10 94.5t-24.5 1t-67 -87t-116 -83t-151 -47.5t-138 18.5t-129.5 83.5t-113.5 183t-31 239.5t52.5 177t87 107t149.5 84t153.5 33.5z" />
    <glyph glyph-name="afii10066" unicode="&#x431;" horiz-adv-x="932" 
d="M443 826q121 5 205 -32l18 -8q96 -42 90 -166q-5 -26 -13 -44l-2 -5q-22 -49 -70 -28l-8 4q-19 7 -115 70q-58 21 -106 13.5t-103 -26.5t-103.5 -64t-65 -105.5t-0.5 -138.5t58 -133t103 -75t132.5 -9t127.5 53t87.5 80.5t66 92.5t61 154t11.5 180.5t-70.5 203
t-144.5 182t-160.5 122t-114 161t30.5 154t180.5 16.5t179.5 -45t138.5 9.5t131 25.5t62.5 -13.5t-107.5 -55t-193.5 -41.5t-183.5 -3t-94.5 -54.5t53.5 -99t139 -108t157 -200t91 -224.5t-12 -230t-87 -228.5t-112 -146.5t-147 -86.5t-161.5 -33.5t-135.5 22t-125.5 83.5
t-106.5 177.5t-24 229.5t56 167t87.5 99.5t148.5 75.5t150.5 27.5z" />
    <glyph glyph-name="afii10067" unicode="&#x432;" horiz-adv-x="725" 
d="M14 520q-1 100 14.5 224t35 230.5t79 273.5t155.5 262.5t174.5 133.5t156.5 56.5t153.5 -0.5t111 -68.5t40 -126t-23.5 -160.5t-63.5 -150.5t-105.5 -169t-134.5 -166.5t-109.5 -112t-112 -81.5t-125.5 -25.5t-66 62.5t9 112.5t104 102.5t141 81.5t103 92.5t110 137.5
t99.5 188.5t3 125.5t-118 -23t-147.5 -101.5t-102 -107t-67.5 -101.5t-53 -110.5t-41 -145t-39.5 -207.5t-11 -218.5t54 -162t86.5 -90.5t125 -12t109 117.5t-37 143t-128.5 26t-157.5 -49t-46 34.5t130 103.5t165.5 29t143 -56.5t83.5 -137.5t2 -170t-83 -150.5t-158.5 -97
t-209.5 -2t-165.5 91.5t-66.5 169.5t-16 204z" />
    <glyph glyph-name="afii10068" unicode="&#x433;" horiz-adv-x="687" 
d="M72 687q-16 61 34.5 104t109.5 70t113.5 43t134.5 28t156 -16t86 -110.5t-20.5 -154.5t-87 -118.5t-132.5 -106t-159.5 -127.5t-74.5 -119t40 -64t78.5 -7t108.5 30t109.5 65.5t70 41.5t10.5 -52.5t-58 -94.5t-154.5 -99.5t-200 -45.5t-142.5 42.5t-71.5 86t3.5 148
t84 133t120.5 70t128 72t115.5 86.5t87 110t-16 89.5t-107 -1t-89.5 -57t-80.5 -69t-111.5 -37.5t-84.5 60z" />
    <glyph glyph-name="afii10069" unicode="&#x434;" horiz-adv-x="833" 
d="M589 802q-52 -36 -122.5 -19t-134.5 -5t-115 -74.5t-82.5 -213.5t49.5 -231t177.5 -34t143 86t78 112t41.5 101.5t20 106.5t9 147t1 98t17.5 48t42.5 37t51 -5t47 -52.5t19.5 -100.5t-13 -197t-30 -264.5t-42.5 -253.5t-29.5 -163t-29 -110t-56.5 -155t-71 -151.5
t-99 -145.5t-123 -120t-123.5 -55.5t-116 11t-71.5 72t-17 120t35 146.5t84.5 146t109.5 134t103 108.5t117.5 106.5t82.5 45.5t-36 -68.5t-87.5 -95.5t-97.5 -113t-106 -154t-68 -129t-1.5 -85t77 -45t141.5 59t124 139t76.5 162.5t65.5 228t58 307t10.5 149.5t-64.5 -115
t-141 -174t-213.5 -72t-197 95.5t-78.5 265.5t68.5 319t188 199.5t208 47.5t126 -31.5t41 -77t-46.5 -88z" />
    <glyph glyph-name="afii10070" unicode="&#x435;" horiz-adv-x="908" 
d="M308 276q-59 12 -88.5 36.5t-37 59t12 66.5t109.5 41t163 -12t142 -3.5t86.5 76t-18 106t-94.5 73.5t-124.5 30t-131 -23.5t-124.5 -111t-53 -187t41 -170t125 -132.5t221 -55t188.5 56.5t74.5 64.5t37.5 16.5t1.5 -43.5t-82 -100.5t-183 -98t-232 -9t-176.5 86.5
t-99.5 124.5t-51.5 144t-10 186t68 202.5t159 146.5t226 51.5t223.5 -52t153.5 -113t66 -155.5t-57 -174t-190 -113t-206 -29t-139.5 14.5z" />
    <glyph glyph-name="afii10072" unicode="&#x436;" horiz-adv-x="1180" 
d="M74 806q-41 -14 -70 0.5t-31.5 52t22.5 70.5t90.5 52.5t132.5 -0.5t101.5 -68t56.5 -101.5t22.5 -139t-22 -189t18 -40t73 173t50.5 159t70.5 66t80 -10.5t33 -82t-17 -188.5t-33.5 -197t6.5 -26.5t40 94.5t63.5 181t110.5 237t146.5 142.5t126.5 3t22 -73.5t-67 -68
t-71 -79t-45.5 -148t-15.5 -168.5t20.5 -165t59.5 -132.5t104.5 -27.5t77.5 4t-57.5 -59t-144 -25t-121 103t-56 198.5t-3.5 167.5t-19.5 -20t-47.5 -122t-35.5 -83t-53.5 -91t-80.5 -49t-46 58.5t-2 132t22.5 216t0 74t-55 -153t-107.5 -195t-170.5 -174.5t-147.5 -74.5
t-70.5 32.5t24.5 64t84 70.5t68.5 123.5t44.5 187t0 171.5t-52 108.5t-63 32.5t-67 -24.5z" />
    <glyph glyph-name="afii10073" unicode="&#x437;" horiz-adv-x="764" 
d="M631 -122q-15 -75 -52.5 -159.5t-118.5 -190t-160.5 -177t-193.5 -128.5t-242 -25.5t-155.5 148t40 239t155 202t187.5 133.5t202 98t112.5 32.5t-53 -51t-162.5 -109t-180.5 -161t-104.5 -154.5t-23.5 -119t43 -76.5t102 -17.5t136 41.5t169 138t133.5 188.5t62.5 188.5
t-32.5 151t-103 57.5t-151 -18.5t-119 13t33.5 97.5t195.5 127t205.5 159t37 154t-83.5 92t-113.5 30t-102.5 -23t-76.5 -78.5t-91.5 -57t-97.5 67.5t20.5 141t181 107.5t246 12.5t201.5 -123.5t69.5 -250.5t-217 -256.5t-119 -102.5t150 -67t74.5 -135t-4.5 -138z" />
    <glyph glyph-name="afii10074" unicode="&#x438;" horiz-adv-x="912" 
d="M155 830q44 12 99.5 3.5t57.5 -57.5t-60 -140t-95.5 -250.5t26 -234t97 -34.5t65 101.5t78 193t136.5 253t160 154.5t135 5.5t27 -78.5t-61.5 -75t-66.5 -86.5t-60 -146t-34 -158.5t-7 -143.5t52.5 -118t129.5 -29t96 4.5t-71 -63t-178 -27t-136.5 117.5t-33.5 167.5
t18.5 126.5t-24 -21.5t-58.5 -130.5t-44 -88.5t-66 -97t-99.5 -52.5t-123.5 62.5t-98 152t-9 326.5t61.5 290t86.5 73.5z" />
    <glyph glyph-name="afii10075" unicode="&#x439;" horiz-adv-x="912" 
d="M365 1082q-3 36 16 55q2 4 8 5q48 -3 87.5 -55t108.5 -13.5t116 67.5q14 -1 15 -19q2 -28 -34 -63q-75 -53 -166 -74l-7 -2q-61 -14 -108 29q-32 24 -36 70zM155 950q44 12 99.5 3.5t57.5 -57.5t-60 -140t-95.5 -250.5t26 -234t97 -34.5t65 101.5t78 193t136.5 253
t160 154.5t135 5.5t27 -78.5t-61.5 -75t-66.5 -86.5t-60 -146t-34 -158.5t-7 -143.5t52.5 -118t129.5 -29t96 4.5t-71 -63t-178 -27t-136.5 117.5t-33.5 167.5t18.5 126.5t-24 -21.5t-58.5 -130.5t-44 -88.5t-66 -97t-99.5 -52.5t-123.5 62.5t-98 152t-9 326.5t61.5 290
t86.5 73.5z" />
    <glyph glyph-name="afii10076" unicode="&#x43a;" horiz-adv-x="720" 
d="M70 765q32 107 91.5 130t105 8t52 -48.5t-30.5 -136.5t-21 -125t106.5 8.5t182 103t131 120t58 40t-27 -95.5t-131 -172.5t-155.5 -119t-118 -52t20 -51t148.5 -98t131 -145t77 -133.5t10.5 -60t-89 77t-125 124.5t-109.5 69.5t-116 49.5t-75 -60.5t-9.5 -172.5
t-21.5 -89t-68 80t-57 206t-28 150.5t-2.5 60t16.5 52t16 94t38.5 186z" />
    <glyph glyph-name="afii10077" unicode="&#x43b;" horiz-adv-x="760" 
d="M171 132q-20 -36 -59.5 -53t-80 -19t-53 41.5t28 130t83 177t110.5 200.5t147.5 200t140 125.5t103 41t54 -30t4 -76t-18 -96.5t-10 -137.5t17.5 -176.5t54 -183.5t72 -148t19 -74t-79 44.5t-104.5 145.5t-64.5 182.5t-21.5 214.5t-19.5 130t-52.5 -19t-61 -76.5
t-62.5 -109.5t-60 -138t-47 -167t-40 -128.5z" />
    <glyph glyph-name="afii10078" unicode="&#x43c;" horiz-adv-x="1162" 
d="M175 -267q-16 -49 -62.5 -80t-98.5 -44.5t-79 34t2.5 161t61.5 232t90.5 266.5t138 276.5t148 187.5t119.5 71t77 -20.5t30.5 -79t2 -118.5t-32 -184t-21 -190t36.5 6.5t61 161t88 153.5t110 148.5t103 114.5t94 63t85.5 -4t52 -66.5t-23.5 -112.5t-64.5 -127t-52.5 -123
t-46 -195t1.5 -228.5t74.5 -146t31 -64t-87.5 15t-116.5 151t-48 214.5t16.5 175t42 145.5t45.5 102.5t1.5 43t-48.5 -29t-76 -115.5t-91 -202t-80 -224t-84.5 -131t-93.5 17.5t-57 157t15 268.5t-7.5 163.5t-69.5 -39.5t-59 -107t-51.5 -146.5t-41.5 -179t-18 -209.5
t-18 -162.5z" />
    <glyph glyph-name="afii10079" unicode="&#x43d;" horiz-adv-x="777" 
d="M97 928q20 41 59 60.5t73.5 18.5t55.5 -20.5t19 -43.5t-14.5 -49.5t-47 -72t-53 -122t-5 -103t46.5 -37.5t97.5 -19.5t92.5 -10t66 26.5t63 153t50 183.5t66 75t85 2t47.5 -55.5t-1.5 -62t-27 -67t-32.5 -68t-37 -101t-31 -131t-7.5 -108.5t2.5 -134t24 -144.5t-4 -70
t-46.5 35t-36.5 80t-25 102.5t-16 124t4 111.5t-4.5 33t-51 -37.5t-85.5 -28t-75.5 -7.5t-110 -7t-91.5 -41t-11 -104t17 -123t32 -113t-8.5 -55t-59.5 60t-56.5 109.5t-40 145t-16 172t16.5 151.5t24 131.5t22.5 90t30 70.5z" />
    <glyph glyph-name="afii10080" unicode="&#x43e;" horiz-adv-x="859" 
d="M47 619q40 137 103 222l12 16q72 96 178 53q20 -14 32 -29l5 -5q34 -39 -2 -85l-6 -9q-13 -17 -102 -108q-40 -59 -51 -115t-14.5 -123.5t18 -135t68 -104.5t120.5 -42t137 25.5t108.5 94.5t68.5 144.5t23.5 147t-20.5 124t-77.5 91t-108 21t-90 -28.5t-22.5 31.5
t82 69.5t128.5 11t99.5 -46.5t67 -84.5t43.5 -114.5t-4 -174t-47 -184t-70 -137.5t-117.5 -111t-193.5 -64.5t-208 42t-125 113.5t-54.5 128.5t-11.5 189.5t30.5 177z" />
    <glyph glyph-name="afii10081" unicode="&#x43f;" horiz-adv-x="972" 
d="M112 782q29 127 96 149t106 -4.5t44 -73t-39.5 -127t30.5 -20.5t163.5 127.5t166.5 102.5t138.5 47.5t112 -11.5t68 -66.5t-30.5 -112.5t-83.5 -127t-68 -123t-60 -195t-6 -194.5t89 -112t40.5 -64t-113.5 15t-133.5 117t-44 180.5t22 175t54.5 145.5t71 116t14.5 72.5
t-99.5 -12t-179.5 -107.5t-158.5 -171t-110.5 -256.5t-102 -185t-71.5 12.5t16 308t67.5 394.5zM265 1112q-7 36 33 55q6 4 19 5q22 3 86 -18q117 -27 153 -24q1 -6 270 14h5q74 8 167 27q31 -1 35 -19q4 -28 -75 -63q-165 -53 -364 -74l-14 -2q-134 -14 -237 29
q-71 24 -78 70z" />
    <glyph glyph-name="afii10082" unicode="&#x440;" horiz-adv-x="984" 
d="M63 680q-9 128 72 145.5t117 -11.5t38 -75.5t-12 -126.5t62 -24t165 118.5t166.5 93.5t136.5 40t107.5 -18t61.5 -70t11 -107t-16.5 -124.5t-53 -120.5t-104 -141.5t-151.5 -152t-191 -110.5t-173 -20t52 74t201.5 129.5t134.5 149.5t80.5 135t19.5 115.5t-41.5 79
t-110 -6t-179 -97.5t-162.5 -162t-102.5 -255.5t-82.5 -281t-68.5 -196t-69.5 -160.5t-100 -196t-93 -125.5t-47 17t14.5 122.5t70 193t82.5 199t73 203t67 373t25 394z" />
    <glyph glyph-name="afii10083" unicode="&#x441;" horiz-adv-x="841" 
d="M800 663q-58 -5 -100.5 19t-87.5 82t-108.5 73.5t-132.5 0t-142 -87t-85.5 -174.5t9.5 -174.5t99 -152.5t208 -93.5t195.5 21.5t84.5 50t40 10t-6 -43t-99 -84.5t-198 -63.5t-229.5 32.5t-158 116t-75.5 140.5t-24.5 151t23.5 185t102.5 187t182 115.5t232 11
t226.5 -85.5t101 -145.5t-57 -90.5z" />
    <glyph glyph-name="afii10084" unicode="&#x442;" horiz-adv-x="924" 
d="M189 920q104 -23 180.5 -44t92 -18.5t53 -3.5t54 -23.5t136.5 -51t185 -69t57.5 -63.5t-98 -17.5t-184 12.5t-101 -6.5t-20.5 -44.5t-34.5 -127.5t-36.5 -170t-45 -278t-51.5 -196t-31.5 105.5t-6.5 253.5t14 268.5t13.5 155.5t-1.5 52.5t-55.5 21.5t-153.5 23.5
t-130.5 35t-25.5 66.5t44.5 94.5t145 24z" />
    <glyph glyph-name="afii10085" unicode="&#x443;" horiz-adv-x="793" 
d="M281 949q8 -89 -57.5 -171t-103.5 -246.5t33 -239t161.5 -44.5t136 77.5t77 107.5t42.5 99t23.5 105t15.5 146t5 98t18 47t41 34.5t47 -8t41.5 -55t13.5 -101.5t-21 -196t-39.5 -262.5t-50.5 -251t-34.5 -161t-32 -108t-59 -151.5t-72.5 -147t-98.5 -139.5t-118.5 -113
t-116 -48t-106.5 18t-63 76t-10.5 121t39 144.5t84.5 140.5t107 127t100 102.5t113.5 99.5t78.5 40.5t-36.5 -66t-85.5 -90t-95 -107.5t-104.5 -147.5t-68.5 -124.5t-5.5 -85t69 -49.5t133.5 50.5t120.5 131.5t78 158t71 224t67 303t16 148.5t-64.5 -111t-138 -165.5
t-200 -59.5t-177 107t-60.5 270t52.5 344t87.5 202.5t89.5 24t56.5 -98z" />
    <glyph glyph-name="afii10086" unicode="&#x444;" horiz-adv-x="1068" 
d="M896 606q-27 62 -78.5 107.5t-67.5 53t-45 -107t-65 -292.5t-41 -229t60.5 -29t134 72t103 124.5t30.5 156.5t-31 144zM2 418q-5 140 59.5 256t129 135.5t99.5 -23.5t4.5 -85.5t-66 -98.5t-48.5 -141.5t16 -154.5t85.5 -124t112 -71t65.5 28t17 91.5t22.5 185t24 220.5
t10.5 113t-42.5 3t-88 -55t-42 21.5t77.5 92.5t90.5 45t12 68.5t28.5 104.5t86 45t102 -23.5t14.5 -111.5t-11 -87t37.5 -11t75.5 -40.5t104.5 -91t68 -162t15.5 -186t-34 -150.5t-106.5 -142.5t-187 -115t-145 -48.5t-53 -54t-78.5 -257t-126 -327t-93 -101.5t43.5 236.5
t105 365.5t18.5 148t-62.5 24.5t-102 58t-110 94.5t-94.5 161.5t-34.5 164z" />
    <glyph glyph-name="afii10087" unicode="&#x445;" horiz-adv-x="976" 
d="M122 803q-51 -18 -87.5 0t-40 65.5t28 89t114.5 66.5t167.5 0t128 -86t71 -128.5t23 -137.5t57.5 128t159 234.5t159.5 4t28 -92.5t-84.5 -86t-89.5 -99.5t-58.5 -147.5t5 -206.5t71.5 -191.5t132.5 -34.5t98.5 5.5t-72.5 -75t-182 -32t-153 130.5t-57 171.5t-37.5 -32.5
t-160.5 -188t-186.5 -93.5t-89 41t31 80.5t105.5 89t91 112t57.5 159.5t-1.5 145.5t-64 98.5t-80 41t-85 -31z" />
    <glyph glyph-name="afii10088" unicode="&#x446;" horiz-adv-x="884" 
d="M155 850q44 12 99.5 3.5t57.5 -57.5t-60 -140t-95.5 -250.5t26 -234t97 -34.5t65 101.5t78 193t136.5 253t160 154.5t135 5.5t27 -78.5t-61.5 -75t-66.5 -86.5t-60 -146t-34 -158.5t-7 -143.5t16.5 -96t45 5.5t47.5 39t37 7t41 -19.5t-3 -106t-81.5 -167t-103.5 -76
t17 72.5t60 104.5t-24.5 17t-71 -7t-88 111t-33.5 167.5t18.5 126.5t-24 -21.5t-58.5 -130.5t-44 -88.5t-66 -97t-99.5 -52.5t-123.5 62.5t-98 152t-9 326.5t61.5 290t86.5 73.5z" />
    <glyph glyph-name="afii10089" unicode="&#x447;" horiz-adv-x="848" 
d="M175 1027q44 12 99.5 4t57.5 -53.5t-80 -130.5t-90.5 -145t41 -125t97 -32.5t90 76t63 82t76.5 100.5t130 93t135 5.5t27 -73t-61.5 -70t-66.5 -81t-60 -136t-34 -147.5t-7 -134t52.5 -110t129.5 -27t96 4.5t-71 -58.5t-178 -25.5t-136.5 109.5t-33.5 156t23 145
t34 139.5t-3 30.5t-57 -74t-91 -92.5t-109.5 -39.5t-123.5 58t-98 104t-14 174t66.5 191t96.5 82z" />
    <glyph glyph-name="afii10090" unicode="&#x448;" horiz-adv-x="1306" 
d="M555 840q44 12 99.5 3.5t57.5 -57.5t-60 -140t-95.5 -250.5t26 -234t97 -34.5t65 101.5t78 193t136.5 253t160 154.5t135 5.5t27 -78.5t-61.5 -75t-66.5 -86.5t-60 -146t-34 -158.5t-7 -143.5t52.5 -118t129.5 -29t96 4.5t-71 -63t-178 -27t-136.5 117.5t-33.5 167.5
t18.5 126.5t-24 -21.5t-58.5 -130.5t-44 -88.5t-66 -97t-99.5 -52.5t-94.5 34.5t-81.5 96.5t-118.5 -37t-174 -75t-122 105.5t-43 212t9.5 296.5t54 215.5t97.5 75t102.5 -35.5t-29.5 -234t-64 -330t45.5 -157.5t109 72.5t62.5 122.5t17 224.5t60.5 245t86.5 73.5z" />
    <glyph glyph-name="afii10091" unicode="&#x449;" horiz-adv-x="1288" 
d="M555 960q44 12 99.5 3.5t57.5 -57.5t-60 -140t-95.5 -250.5t26 -234t97 -34.5t65 101.5t78 193t136.5 253t160 154.5t135 5.5t27 -78.5t-61.5 -75t-66.5 -86.5t-60 -146t-34 -158.5t-7 -143.5t41 -110t73 -1t74 38t47 -32.5t-19 -107t-78.5 -124.5t-88 -45.5t26 99.5
t24.5 69.5t-103 -13.5t-104.5 112t-33.5 167.5t18.5 126.5t-24 -21.5t-58.5 -130.5t-44 -88.5t-66 -97t-99.5 -52.5t-94.5 34.5t-81.5 96.5t-118.5 -37t-174 -75t-122 105.5t-43 212t9.5 296.5t54 215.5t97.5 75t102.5 -35.5t-29.5 -234t-64 -330t45.5 -157.5t109 72.5
t62.5 122.5t17 224.5t60.5 245t86.5 73.5z" />
    <glyph glyph-name="afii10092" unicode="&#x44a;" horiz-adv-x="545" 
d="M-1 271q6 60 34 124.5t52.5 119t83 135t126.5 128.5t-91 0t-186 -2t13.5 97t170.5 67t195.5 8t107 -47.5t19 -92.5t-74.5 -89t-95 -76.5t-80 -96.5t-75 -134t-59 -148.5t9.5 -116.5t64 -71t108 -27.5t105 67t6 132t-93.5 64t-99 5.5t-24 25t89.5 35t138.5 -11.5t79 -88.5
t19.5 -121.5t-27 -102.5t-76.5 -74t-128 -33.5t-152.5 30.5t-111.5 79.5t-43.5 100.5t-4.5 115z" />
    <glyph glyph-name="afii10093" unicode="&#x44b;" horiz-adv-x="876" 
d="M896 959q45 -9 54 -64q2 -9 -1 -25q-6 -29 -55 -93q-75 -127 -84 -170q-7 1 -83 -327l-1 -5q-18 -91 -28 -211q-13 -36 -35 -32q-36 7 -49 118q-5 219 42 464l4 19q31 164 121 266q56 71 115 60zM-14 311q-5 66 6 138.5t25 135.5t45.5 159.5t79.5 152.5t129 78.5
t115.5 -25t-19.5 -93t-98.5 -93.5t-71 -114.5t-45 -154.5t-25.5 -166t30.5 -118.5t74.5 -59.5t111.5 -8t92 85t-18 131t-103 46.5t-98 -12t-28 20.5t82.5 50t138.5 13t93 -73.5t40 -116t-9 -105t-62 -86t-119.5 -55.5t-156 2.5t-124 58.5t-60.5 91.5t-25.5 117.5z" />
    <glyph glyph-name="afii10094" unicode="&#x44c;" horiz-adv-x="552" 
d="M-14 231q-5 66 6 138.5t25 135.5t45.5 159.5t79.5 152.5t129 78.5t115.5 -25t-19.5 -93t-98.5 -93.5t-71 -114.5t-45 -154.5t-25.5 -166t30.5 -118.5t74.5 -59.5t111.5 -8t92 85t-18 131t-103 46.5t-98 -12t-28 20.5t82.5 50t138.5 13t93 -73.5t40 -116t-9 -105t-62 -86
t-119.5 -55.5t-156 2.5t-124 58.5t-60.5 91.5t-25.5 117.5z" />
    <glyph glyph-name="afii10095" unicode="&#x44d;" horiz-adv-x="821" 
d="M108 750q-53 18 -35.5 100.5t106.5 109.5t211 24t213 -60.5t146.5 -152.5t59.5 -204.5t-13.5 -185.5t-51.5 -142t-97 -120.5t-169 -79t-218.5 18.5t-169 117t-40.5 85.5t69.5 -36t177 -63.5t210.5 46t120.5 127t39 90t-21.5 58.5t-118 17.5t-141 -30t-52 10t66 63.5
t134 52.5t100 26t-15 83.5t-110 101t-123 29t-99.5 -38t-81.5 -51t-97 3.5z" />
    <glyph glyph-name="afii10096" unicode="&#x44e;" horiz-adv-x="1195" 
d="M104 857q27 41 66 57t71 11.5t49.5 -26.5t5 -47t-21.5 -50.5t-27 -58t-40.5 -106.5t-21.5 -101.5t30.5 -41t54.5 -21t57 -7t60 19t51.5 145.5t47 183t63.5 70t79 -6t45 -62t-1 -63.5t-26 -66t-31 -66.5t-24.5 -95.5t-20 -127t4.5 -143.5t84 -132.5t130 -33.5t104 38.5
t89.5 96t71 155t23 142.5t-24.5 138.5t-76 134t-149 20t-105 -6.5t84 63t212 -14.5t150 -158.5t40 -220t-20 -167.5t-52.5 -111t-82 -110.5t-109.5 -82.5t-120.5 -46.5t-139 -13.5t-140.5 61t-91 140.5t-25 142.5t-4.5 94.5t-28 19.5t-50.5 -22t-62.5 -9.5t-84 -2t-60.5 -35
t-27.5 -87t-7.5 -117.5t0 -105t-27 -34.5t-35.5 46t-23 104.5t-1.5 140.5t8.5 157.5t10.5 153t21 118t16.5 77t31.5 70.5z" />
    <glyph glyph-name="afii10097" unicode="&#x44f;" horiz-adv-x="788" 
d="M9 153q53 33 147.5 112t163.5 174.5t-7 86t-128.5 12.5t-94.5 69.5t-53 104t-2 102t32.5 95.5t60.5 84t64 46.5t77 25t94.5 3.5t92.5 -31t85 -69.5t30.5 -65.5t-38.5 6t-85.5 44t-106.5 27t-88.5 -12t-60.5 -59t-35.5 -104t38.5 -104.5t131 -28t135.5 52t95.5 99.5t86 94
t97.5 20t41.5 -78.5t-43 -88t-56 -74t-36.5 -140t-7 -168.5t33 -165t77 -132.5t40 -76.5t-96.5 29t-123 133t-51.5 152.5t-17 127.5t-61.5 -39t-94 -142t-78 -108t-93 -109t-114.5 -47t-85.5 58.5t34 83.5z" />
    </font>
</defs>
</svg>
